<svg xmlns="http://www.w3.org/2000/svg" viewBox="-48 -48 96 96" width="96" height="96">
  <!-- Dark background circle -->
  <circle cx="0" cy="0" r="48" fill="#1C1917"/>
  <!-- Gear mark: outer ring -->
  <circle cx="0" cy="0" r="30" fill="none" stroke="#C8893A" stroke-width="2.2"/>
  <!-- Gear teeth -->
  <g stroke="#C8893A" stroke-width="2.8" stroke-linecap="round">
    <line x1="0" y1="-30" x2="0" y2="-38"/>
    <line x1="0" y1="30" x2="0" y2="38"/>
    <line x1="30" y1="0" x2="38" y2="0"/>
    <line x1="-30" y1="0" x2="-38" y2="0"/>
    <line x1="21.2" y1="-21.2" x2="26.9" y2="-26.9"/>
    <line x1="-21.2" y1="-21.2" x2="-26.9" y2="-26.9"/>
    <line x1="21.2" y1="21.2" x2="26.9" y2="26.9"/>
    <line x1="-21.2" y1="21.2" x2="-26.9" y2="26.9"/>
  </g>
  <!-- M mark -->
  <path d="M-12 12 L-12 -8 L0 5 L12 -8 L12 12" fill="none" stroke="#F0F0F0" stroke-width="2" stroke-linejoin="round" stroke-linecap="round"/>
  <!-- Center dot -->
  <circle cx="0" cy="0" r="2.5" fill="#C8893A"/>
  <!-- Thread lines -->
  <line x1="-30" y1="0" x2="30" y2="0" stroke="#C8893A" stroke-width="0.4" opacity="0.3"/>
  <line x1="-21.2" y1="-21.2" x2="21.2" y2="21.2" stroke="#C8893A" stroke-width="0.4" opacity="0.3"/>
  <line x1="21.2" y1="-21.2" x2="-21.2" y2="21.2" stroke="#C8893A" stroke-width="0.4" opacity="0.3"/>
</svg>
